<svg width="90" height="104" viewBox="0 0 90 104" fill="none" xmlns="http://www.w3.org/2000/svg">
<g filter="url(#filter0_d_69_343)">
<path d="M39.5535 72.8281C42.8621 72.0252 45.0252 69.8527 45.2344 67.5148C45.2878 67.3732 45.3201 67.2551 45.2969 67.0898L45.0084 52.6849C45.7499 53.4405 46.5515 54.1018 47.3399 54.6685C47.3921 54.6921 47.4231 54.7393 47.4753 54.763C48.1804 55.2589 48.9 55.6839 49.5462 56.109C50.2136 56.5104 50.8254 56.8647 51.364 57.2189C51.7115 57.4314 52.0347 57.6439 52.3333 57.8565C52.9585 58.3051 53.4303 58.7066 53.7589 59.1317L53.8144 59.1789L53.8488 59.2497L53.9142 59.3678L53.9453 59.415L53.973 59.4387C53.9697 59.415 53.9453 59.415 53.942 59.3914C54.0074 59.5095 54.0973 59.6276 54.1628 59.7456C54.2937 59.9818 54.4491 60.2179 54.5556 60.4541C54.793 60.9264 55.0126 61.4459 55.1589 61.9654C55.7752 64.0907 55.6447 66.6411 54.8577 69.2151C55.5544 68.9553 56.1579 68.5539 56.6813 68.1052C57.226 67.6329 57.6906 67.1134 58.0998 66.5466C58.9114 65.3659 59.47 63.949 59.5621 62.3432C59.5959 61.5404 59.5531 60.7138 59.3604 59.8637C59.2518 59.4387 59.1432 59.0136 58.9891 58.6121C58.9103 58.3996 58.8316 58.1871 58.7317 57.9982L58.7284 57.9745C58.7284 57.9745 58.7251 57.9509 58.694 57.9037L58.6907 57.8801L58.7197 57.7384L58.6786 57.6203L58.6443 57.5495L58.6065 57.455L58.5067 57.2661C58.3103 56.9119 58.1205 56.6049 57.8819 56.2979C57.9241 56.2507 57.9453 56.2271 57.9875 56.1798C58.8025 55.0227 59.3577 53.5822 59.4498 51.9764C59.5081 51.1735 59.4375 50.3234 59.2481 49.4969C59.164 49.0718 59.0309 48.6468 58.8768 48.2453C58.798 48.0328 58.7193 47.8203 58.6439 47.6313L58.6406 47.6077C58.6406 47.6077 58.6406 47.6077 58.6062 47.5369L58.6029 47.5133L58.5718 47.466L58.5063 47.348L58.4719 47.2771L58.4098 47.1827L58.3099 46.9938C57.7862 46.0492 57.108 45.2227 56.3975 44.5142C55.7214 43.8766 55.0341 43.3335 54.3568 42.8612C54.3013 42.814 54.2491 42.7904 54.1936 42.7431C53.4641 42.2472 52.769 41.8222 52.1016 41.4207C51.4376 41.0429 50.8224 40.665 50.2627 40.3344C49.783 40.0511 49.3766 39.7677 48.9736 39.5079C48.4284 39.1065 47.9354 38.7286 47.5336 38.3036C46.8197 37.5715 46.2049 36.6742 45.728 35.5407C45.2299 34.4308 44.9041 33.1556 44.5162 31.7859L44.3907 31.7623C44.2664 31.5734 44.0965 31.4081 43.9089 31.29C43.6624 31.1011 43.3525 30.983 43.0526 30.9358C42.1807 30.8177 41.475 31.3609 41.49 32.1638L42.0351 62.4849C39.9729 61.375 37.1794 60.9736 34.5318 61.6112C30.2055 62.6502 27.8417 66.0035 29.2294 69.097C29.6521 70.018 30.3481 70.7973 31.2197 71.4349C33.3383 72.9462 36.5282 73.5602 39.5535 72.8281ZM45.897 45.7894C45.4677 44.8212 45.144 43.7349 44.8315 42.5542L44.8161 42.2708C45.3779 42.7904 45.9574 43.2626 46.5826 43.7113C47.9927 44.7031 49.5085 45.5769 50.9431 46.5687C51.3772 46.8757 51.818 47.2299 52.2343 47.5841C54.1528 49.2371 55.1502 51.2916 55.3643 53.5114C55.3742 53.5822 55.363 53.6767 55.373 53.7475C55.071 53.5114 54.7446 53.2752 54.4426 53.0391C54.4148 53.0155 54.387 52.9919 54.3349 52.9682C53.6053 52.4723 52.9102 52.0473 52.2429 51.6458C51.5788 51.268 50.9636 50.8902 50.404 50.5596C49.9487 50.2762 49.5179 49.9928 49.1393 49.733C48.5941 49.3316 48.1011 48.9538 47.6715 48.5051C46.9888 47.8203 46.3706 46.8993 45.897 45.7894Z" fill="white"/>
</g>
<defs>
<filter id="filter0_d_69_343" x="-1.16772" y="0.919708" width="90.7402" height="102.217" filterUnits="userSpaceOnUse" color-interpolation-filters="sRGB">
<feFlood flood-opacity="0" result="BackgroundImageFix"/>
<feColorMatrix in="SourceAlpha" type="matrix" values="0 0 0 0 0 0 0 0 0 0 0 0 0 0 0 0 0 0 127 0" result="hardAlpha"/>
<feOffset/>
<feGaussianBlur stdDeviation="15"/>
<feColorMatrix type="matrix" values="0 0 0 0 0.25 0 0 0 0 0.441176 0 0 0 0 1 0 0 0 1 0"/>
<feBlend mode="normal" in2="BackgroundImageFix" result="effect1_dropShadow_69_343"/>
<feBlend mode="normal" in="SourceGraphic" in2="effect1_dropShadow_69_343" result="shape"/>
</filter>
</defs>
</svg>
