<svg width="33" height="40" viewBox="0 0 33 40" fill="none" xmlns="http://www.w3.org/2000/svg">
<path d="M24.7616 11.8426C23.8239 12.4411 23.1057 13.2591 22.6468 14.137C22.3874 14.6158 21.729 14.7754 21.4298 14.3165C18.4969 10.1268 16.0828 5.37835 14.4468 0.530192C14.2672 -0.00849241 13.4093 -0.208005 13.15 0.270825C12.9505 0.669851 12.9106 1.24844 12.7909 1.66741C12.3719 3.08395 11.8731 4.48054 11.2945 5.83723C10.0376 8.75012 8.24196 12.4211 5.34903 14.0572C4.59088 14.4961 3.75292 14.7355 2.89502 14.8153C2.19672 14.8752 -0.795966 14.2367 0.201598 15.7929L0.540769 16.3116C3.27409 20.5214 6.06727 24.8508 7.72323 29.2002C7.90279 29.679 7.44391 30.098 6.92518 30.0581C5.6882 29.9583 4.35146 30.2576 3.15439 31.0357C0.600623 32.6916 -0.337087 35.824 1.0595 38.0186C2.47604 40.2133 5.6882 40.6522 8.24196 38.9962C10.4965 37.5398 11.494 34.9262 10.7359 32.8313C10.0176 29.1004 8.30182 25.4294 6.22688 21.8381C5.88771 21.2596 6.16703 20.5214 6.78552 20.242C10.6361 18.4065 13.8882 16.152 16.4818 12.1019C16.8011 11.6231 17.4993 11.683 17.7986 12.1817C19.275 14.6557 20.931 16.99 22.7266 19.1048C23.2254 19.7034 23.9237 20.1024 24.6619 20.4017C26.2181 21.06 28.1932 20.8805 29.8891 19.7832C32.4429 18.1272 33.3806 14.9949 31.984 12.8002C30.5275 10.6056 27.3154 10.1667 24.7616 11.8426Z" fill="white"/>
</svg>
