<svg width="96" height="100" viewBox="0 0 96 100" fill="none" xmlns="http://www.w3.org/2000/svg">
<g filter="url(#filter0_d_69_344)">
<path d="M51.0786 40.7763L51.0528 41.0447L49.7375 50.62L47.9064 64.267C47.9064 64.4236 47.8549 64.5355 47.7774 64.6697C47.2101 66.8846 44.6053 68.9428 40.9947 69.7034C37.6936 70.397 34.4182 69.8377 32.4066 68.4059C31.5813 67.8018 30.9624 67.0635 30.6528 66.191C29.647 63.2603 32.6387 60.0834 37.3583 59.099C40.2468 58.495 43.1352 58.8753 45.1469 59.9268L49.0412 31.1786C49.1444 30.418 49.9697 29.9034 50.8723 30.0153C51.1818 30.06 51.4912 30.1719 51.7234 30.3508C51.9039 30.4627 52.0586 30.6193 52.1618 30.7983L52.2908 30.8207C52.3198 31.0032 52.3478 31.184 52.3755 31.3629C52.5448 32.4551 52.7026 33.4743 53.0129 34.3778C53.3481 35.4517 53.8639 36.3018 54.5087 36.9954C54.8698 37.3981 55.334 37.756 55.8498 38.1364C55.9685 38.2118 56.0872 38.2894 56.2081 38.3685C56.4813 38.5471 56.7659 38.7333 57.0877 38.9194C57.2629 39.0207 57.4436 39.1267 57.6296 39.2359C58.0185 39.4642 58.4311 39.7063 58.8672 39.9485C59.512 40.3288 60.1825 40.7315 60.8789 41.2013C60.9305 41.2461 60.982 41.2684 61.0336 41.3132C61.6783 41.7606 62.3231 42.2752 62.9421 42.8792C63.5868 43.5504 64.18 44.3334 64.5926 45.2283L64.67 45.4073L64.7216 45.4968L64.7474 45.5639L64.799 45.6758L64.8247 45.7205V45.7429L64.8505 45.81V45.8324C64.9021 46.0113 64.9537 46.2127 65.0053 46.414C65.1084 46.7944 65.1858 47.1971 65.2116 47.5998C65.289 48.3828 65.2374 49.1882 65.0569 49.9488C65.0501 49.9789 65.0431 50.0088 65.0359 50.0387C65.0343 50.046 65.0327 50.0534 65.0311 50.0607C64.6958 51.582 63.8963 52.9243 62.8647 54.0429C62.3489 54.5799 61.7815 55.0721 61.1368 55.5195C60.5178 55.9446 59.8215 56.3249 59.0478 56.571C60.1632 54.3268 60.689 52.1016 60.5044 50.1918C60.313 48.5651 59.5491 47.0503 58.1193 45.81C57.7324 45.4744 57.3198 45.1388 56.9072 44.848C56.2537 44.3987 55.5765 43.9751 54.9013 43.5525C54.1641 43.0913 53.4291 42.6314 52.7292 42.141C52.136 41.7159 51.5944 41.2685 51.0786 40.7763Z" fill="white"/>
</g>
<defs>
<filter id="filter0_d_69_344" x="0.458252" y="0" width="94.7881" height="100" filterUnits="userSpaceOnUse" color-interpolation-filters="sRGB">
<feFlood flood-opacity="0" result="BackgroundImageFix"/>
<feColorMatrix in="SourceAlpha" type="matrix" values="0 0 0 0 0 0 0 0 0 0 0 0 0 0 0 0 0 0 127 0" result="hardAlpha"/>
<feOffset/>
<feGaussianBlur stdDeviation="15"/>
<feColorMatrix type="matrix" values="0 0 0 0 0.25 0 0 0 0 0.441176 0 0 0 0 1 0 0 0 1 0"/>
<feBlend mode="normal" in2="BackgroundImageFix" result="effect1_dropShadow_69_344"/>
<feBlend mode="normal" in="SourceGraphic" in2="effect1_dropShadow_69_344" result="shape"/>
</filter>
</defs>
</svg>
