<svg width="16" height="16" viewBox="0 0 16 16" fill="none" xmlns="http://www.w3.org/2000/svg">
<path fill-rule="evenodd" clip-rule="evenodd" d="M15.5677 0.432361C14.9912 -0.144119 14.0566 -0.144121 13.4801 0.432359L8.00002 5.91242L2.51998 0.432372C1.9435 -0.144108 1.00884 -0.144108 0.432361 0.432372C-0.144119 1.00885 -0.144121 1.94351 0.432359 2.51999L5.9124 8.00003L0.43246 13.48C-0.14402 14.0565 -0.14402 14.9911 0.43246 15.5676C1.00894 16.1441 1.9436 16.1441 2.52008 15.5676L8.00002 10.0877L13.48 15.5676C14.0565 16.1441 14.9911 16.1441 15.5676 15.5676C16.1441 14.9911 16.1441 14.0565 15.5676 13.48L10.0876 8.00003L15.5677 2.51998C16.1442 1.9435 16.1442 1.00884 15.5677 0.432361Z" fill="black"/>
</svg>
