<svg width="31" height="41" viewBox="0 0 31 41" fill="none" xmlns="http://www.w3.org/2000/svg">
<path d="M9.46368 39.736C12.5961 38.9753 14.856 36.9168 15.3482 34.7017C15.4153 34.5675 15.4601 34.4556 15.4601 34.299L17.0487 20.6504C17.6304 21.3664 18.2793 21.9929 18.9282 22.5299C18.9729 22.5523 18.9953 22.597 19.04 22.6194C19.6218 23.0893 20.2259 23.492 20.7629 23.8947C21.3222 24.2751 21.8369 24.6107 22.2844 24.9464C22.5752 25.1477 22.8437 25.3491 23.0898 25.5505C23.6045 25.9756 23.9848 26.356 24.2309 26.7587L24.2757 26.8035L24.2981 26.8706L24.3428 26.9825L24.3652 27.0272L24.3876 27.0496C24.3876 27.0272 24.3652 27.0272 24.3652 27.0048C24.4099 27.1167 24.4771 27.2286 24.5218 27.3404C24.6113 27.5642 24.7232 27.7879 24.7903 28.0117C24.9469 28.4592 25.0812 28.9514 25.1483 29.4437C25.4392 31.4574 24.9917 33.8738 23.9401 36.3127C24.6113 36.0666 25.2154 35.6862 25.7524 35.2611C26.3118 34.8136 26.804 34.3213 27.2515 33.7843C28.1465 32.6656 28.8401 31.3231 29.131 29.8017C29.2652 29.0409 29.3324 28.2578 29.2652 27.4523C29.2205 27.0496 29.1757 26.6468 29.0863 26.2665C29.0415 26.0651 28.9968 25.8637 28.9296 25.6847V25.6623C28.9296 25.6623 28.9296 25.64 28.9073 25.5952V25.5728L28.952 25.4386L28.9296 25.3267L28.9073 25.2596L28.8849 25.1701L28.8178 24.9911C28.6835 24.6555 28.5493 24.3646 28.3703 24.0737C28.415 24.029 28.4374 24.0066 28.4821 23.9619C29.3771 22.8655 30.0707 21.5007 30.3616 19.9792C30.5182 19.2184 30.563 18.413 30.4958 17.6298C30.4735 17.2271 30.4064 16.8244 30.3169 16.444C30.2721 16.2426 30.2274 16.0412 30.1826 15.8622V15.8399C30.1826 15.8399 30.1826 15.8399 30.1602 15.7728V15.7504L30.1379 15.7056L30.0931 15.5938L30.0707 15.5266L30.026 15.4371L29.9589 15.2581C29.6009 14.3631 29.0862 13.58 28.5269 12.9088C27.9899 12.3047 27.4305 11.7901 26.8712 11.3426C26.8264 11.2978 26.7817 11.2754 26.7369 11.2307C26.1328 10.7608 25.5511 10.3581 24.9917 9.97772C24.4323 9.61972 23.9177 9.26173 23.4478 8.94848C23.0451 8.67999 22.7095 8.41149 22.3739 8.16537C21.9264 7.785 21.5236 7.42701 21.2104 7.02426C20.651 6.33065 20.2035 5.48041 19.9126 4.40643C19.5994 3.35482 19.4652 2.14659 19.2862 0.848859L19.1743 0.826485C19.0848 0.647488 18.9505 0.490865 18.7939 0.378992C18.5925 0.199995 18.324 0.0881214 18.0555 0.0433721C17.2724 -0.0685011 16.5564 0.446116 16.4669 1.20685L13.066 29.9359C11.3208 28.8843 8.81482 28.5039 6.30886 29.108C2.2143 30.0925 -0.381162 33.2697 0.491449 36.2008C0.759945 37.0734 1.29694 37.8118 2.01293 38.4159C3.75815 39.8479 6.59973 40.4296 9.46368 39.736ZM18.7492 14.117C18.4807 13.1997 18.324 12.1704 18.1898 11.0517L18.2122 10.7832C18.6597 11.2754 19.1295 11.7229 19.6441 12.1481C20.8076 13.0878 22.083 13.9157 23.2688 14.8554C23.6268 15.1463 23.9848 15.4819 24.3204 15.8175C25.8643 17.3837 26.5132 19.3303 26.4237 21.4335C26.4237 21.5007 26.4013 21.5902 26.4013 21.6573C26.1552 21.4335 25.8867 21.2098 25.6406 20.986C25.6182 20.9637 25.5958 20.9413 25.5511 20.9189C24.9469 20.4491 24.3652 20.0463 23.8058 19.6659C23.2465 19.3079 22.7318 18.95 22.262 18.6367C21.8816 18.3682 21.5236 18.0997 21.2104 17.8536C20.7629 17.4732 20.3601 17.1152 20.0245 16.6901C19.4875 16.0412 19.04 15.1686 18.7492 14.117Z" fill="white"/>
</svg>
