<svg width="31" height="40" viewBox="0 0 31 40" fill="none" xmlns="http://www.w3.org/2000/svg">
<path d="M17.8876 10.7763L17.8652 11.0447L16.7242 20.62L15.1357 34.267C15.1357 34.4236 15.0911 34.5355 15.0239 34.6697C14.5317 36.8846 12.2721 38.9428 9.14004 39.7034C6.27645 40.397 3.43514 39.8377 1.69016 38.4059C0.974209 37.8018 0.437299 37.0635 0.16879 36.191C-0.703702 33.2603 1.89149 30.0834 5.98555 29.099C8.49127 28.495 10.9969 28.8753 12.742 29.9268L16.1201 1.17861C16.2097 0.417963 16.9256 -0.096597 17.7086 0.0152637C17.977 0.0600073 18.2455 0.171868 18.4469 0.350846C18.6035 0.462706 18.7377 0.619311 18.8272 0.798289L18.939 0.820662C18.9642 1.00323 18.9885 1.18403 19.0126 1.36287C19.1594 2.4551 19.2963 3.47428 19.5655 4.37783C19.8563 5.45169 20.3037 6.30184 20.863 6.99537C21.1763 7.39807 21.579 7.75603 22.0264 8.13635C22.1294 8.21184 22.2323 8.28943 22.3372 8.36848C22.5742 8.54714 22.8211 8.73326 23.1002 8.91938C23.2522 9.02071 23.4089 9.12672 23.5703 9.2359C23.9077 9.4642 24.2656 9.70635 24.6439 9.9485C25.2032 10.3288 25.7849 10.7315 26.389 11.2013C26.4337 11.2461 26.4784 11.2684 26.5232 11.3132C27.0825 11.7606 27.6418 12.2752 28.1788 12.8792C28.7381 13.5504 29.2526 14.3334 29.6105 15.2283L29.6777 15.4073L29.7224 15.4968L29.7448 15.5639L29.7895 15.6758L29.8119 15.7205V15.7429L29.8343 15.81V15.8324C29.879 16.0113 29.9237 16.2127 29.9685 16.414C30.058 16.7944 30.1251 17.1971 30.1475 17.5998C30.2146 18.3828 30.1699 19.1882 30.0133 19.9488C30.0074 19.9789 30.0013 20.0088 29.9951 20.0387C29.9937 20.046 29.9923 20.0534 29.9909 20.0607C29.7 21.582 29.0065 22.9243 28.1116 24.0429C27.6642 24.5799 27.172 25.0721 26.6127 25.5195C26.0757 25.9446 25.4717 26.3249 24.8005 26.571C25.7682 24.3268 26.2242 22.1016 26.0642 20.1918C25.8981 18.5651 25.2355 17.0503 23.9951 15.81C23.6595 15.4744 23.3016 15.1388 22.9436 14.848C22.3767 14.3987 21.7894 13.9751 21.2036 13.5525C20.5641 13.0913 19.9265 12.6314 19.3194 12.141C18.8048 11.7159 18.335 11.2685 17.8876 10.7763Z" fill="white"/>
</svg>
