<svg width="98" height="100" viewBox="0 0 98 100" fill="none" xmlns="http://www.w3.org/2000/svg">
<g filter="url(#filter0_d_69_346)">
<path d="M58.5446 41.8426C57.4637 42.4411 56.6357 43.2591 56.1067 44.137C55.8077 44.6158 55.0487 44.7754 54.7037 44.3165C51.3228 40.1268 48.5399 35.3784 46.654 30.5302C46.447 29.9915 45.458 29.792 45.159 30.2708C44.929 30.6699 44.883 31.2484 44.745 31.6674C44.262 33.084 43.687 34.4805 43.02 35.8372C41.5711 38.7501 39.5011 42.4211 36.1662 44.0572C35.2923 44.4961 34.3263 44.7355 33.3373 44.8153C32.5323 44.8752 29.0824 44.2367 30.2324 45.7929L30.6234 46.3116C33.7743 50.5214 36.9942 54.8508 38.9032 59.2002C39.1102 59.679 38.5812 60.098 37.9832 60.0581C36.5572 59.9583 35.0163 60.2576 33.6363 61.0357C30.6924 62.6916 29.6114 65.824 31.2214 68.0186C32.8543 70.2133 36.5572 70.6522 39.5011 68.9962C42.1001 67.5398 43.25 64.9262 42.3761 62.8313C41.5481 59.1004 39.5701 55.4294 37.1782 51.8381C36.7872 51.2596 37.1092 50.5214 37.8222 50.242C42.2611 48.4065 46.01 46.152 48.9999 42.1019C49.3679 41.6231 50.1729 41.683 50.5178 42.1817C52.2198 44.6557 54.1287 46.99 56.1987 49.1048C56.7737 49.7034 57.5787 50.1024 58.4296 50.4017C60.2236 51.06 62.5005 50.8805 64.4555 49.7832C67.3994 48.1272 68.4804 44.9949 66.8704 42.8002C65.1914 40.6056 61.4885 40.1667 58.5446 41.8426Z" fill="white"/>
</g>
<defs>
<filter id="filter0_d_69_346" x="0" y="0" width="97.6167" height="100" filterUnits="userSpaceOnUse" color-interpolation-filters="sRGB">
<feFlood flood-opacity="0" result="BackgroundImageFix"/>
<feColorMatrix in="SourceAlpha" type="matrix" values="0 0 0 0 0 0 0 0 0 0 0 0 0 0 0 0 0 0 127 0" result="hardAlpha"/>
<feOffset/>
<feGaussianBlur stdDeviation="15"/>
<feColorMatrix type="matrix" values="0 0 0 0 0.25 0 0 0 0 0.441176 0 0 0 0 1 0 0 0 1 0"/>
<feBlend mode="normal" in2="BackgroundImageFix" result="effect1_dropShadow_69_346"/>
<feBlend mode="normal" in="SourceGraphic" in2="effect1_dropShadow_69_346" result="shape"/>
</filter>
</defs>
</svg>
